<svg width="26" height="26" viewBox="0 0 26 26" fill="none" xmlns="http://www.w3.org/2000/svg">
<path d="M12.9992 20.0418C10.4642 20.0418 8.39502 17.9726 8.39502 15.4376C8.39502 14.9935 8.76335 14.6251 9.20752 14.6251C9.65169 14.6251 10.02 14.9935 10.02 15.4376C10.02 17.0843 11.3525 18.4168 12.9992 18.4168C14.6459 18.4168 15.9784 17.0843 15.9784 15.4376C15.9784 14.9935 16.3467 14.6251 16.7909 14.6251C17.235 14.6251 17.6034 14.9935 17.6034 15.4376C17.6034 17.9726 15.5342 20.0418 12.9992 20.0418Z" fill="black"/>
<path d="M5.62217 6.91179C5.41634 6.91179 5.19967 6.82512 5.048 6.67345C4.73384 6.35929 4.73384 5.83929 5.048 5.52512L8.9805 1.59262C9.29467 1.27845 9.81467 1.27845 10.1288 1.59262C10.443 1.90679 10.443 2.42679 10.1288 2.74095L6.19634 6.67345C6.03384 6.82512 5.828 6.91179 5.62217 6.91179Z" fill="black"/>
<path d="M20.3774 6.91173C20.1716 6.91173 19.9658 6.83589 19.8033 6.67339L15.8708 2.74089C15.5566 2.42673 15.5566 1.90673 15.8708 1.59256C16.1849 1.27839 16.7049 1.27839 17.0191 1.59256L20.9516 5.52506C21.2658 5.83923 21.2658 6.35923 20.9516 6.67339C20.7999 6.82506 20.5833 6.91173 20.3774 6.91173Z" fill="black"/>
<path d="M21.8942 11.4835C21.8184 11.4835 21.7426 11.4835 21.6667 11.4835H21.4176H4.33341C3.57508 11.4943 2.70841 11.4943 2.08008 10.866C1.58175 10.3785 1.35425 9.62015 1.35425 8.50431C1.35425 5.52515 3.53175 5.52515 4.57175 5.52515H21.4284C22.4684 5.52515 24.6459 5.52515 24.6459 8.50431C24.6459 9.63098 24.4184 10.3785 23.9201 10.866C23.3567 11.4293 22.5984 11.4835 21.8942 11.4835ZM4.57175 9.85848H21.6776C22.1651 9.86931 22.6201 9.86931 22.7717 9.71765C22.8476 9.64181 23.0101 9.38181 23.0101 8.50431C23.0101 7.28015 22.7067 7.15015 21.4176 7.15015H4.57175C3.28258 7.15015 2.97925 7.28015 2.97925 8.50431C2.97925 9.38181 3.15258 9.64181 3.21758 9.71765C3.36925 9.85848 3.83508 9.85848 4.31175 9.85848H4.57175Z" fill="black"/>
<path d="M16.1305 24.6459H9.59799C5.71965 24.6459 4.85299 22.3384 4.51715 20.3343L2.98965 10.9634C2.91382 10.5193 3.21715 10.1076 3.66132 10.0318C4.09465 9.95593 4.51715 10.2593 4.59299 10.7034L6.12049 20.0634C6.43465 21.9809 7.08465 23.0209 9.59799 23.0209H16.1305C18.9147 23.0209 19.2288 22.0459 19.5863 20.1609L21.4063 10.6818C21.493 10.2376 21.9155 9.9451 22.3597 10.0426C22.8038 10.1293 23.0855 10.5518 22.9988 10.9959L21.1788 20.4751C20.7563 22.6743 20.0522 24.6459 16.1305 24.6459Z" fill="black"/>
</svg>
