<svg width="21" height="18" viewBox="0 0 21 18" fill="none" xmlns="http://www.w3.org/2000/svg">
<path d="M13.8676 15.4374C13.9003 15.4428 13.9327 15.4454 13.9647 15.4454C14.2459 15.4454 14.4942 15.2423 14.5419 14.9557L15.1279 11.4401C15.1811 11.1209 14.9654 10.819 14.6462 10.7658C14.327 10.7124 14.0251 10.9282 13.9719 11.2474L13.386 14.7631C13.3328 15.0823 13.5484 15.3842 13.8676 15.4374Z" fill="white"/>
<path d="M6.90162 14.9557C6.94939 15.2423 7.1976 15.4454 7.47889 15.4454C7.51088 15.4454 7.5433 15.4428 7.57592 15.4373C7.89514 15.3841 8.11076 15.0822 8.05756 14.763L7.47162 11.2474C7.41842 10.9282 7.11658 10.7126 6.79732 10.7657C6.4781 10.8189 6.26248 11.1208 6.31568 11.44L6.90162 14.9557Z" fill="white"/>
<path d="M20.1162 6.07031H18.0541L13.5425 0.430853C13.3404 0.178235 12.9717 0.137181 12.7189 0.339368C12.4663 0.541517 12.4253 0.910228 12.6275 1.16292L16.5534 6.07031H4.85094L8.77687 1.16292C8.97902 0.910228 8.93805 0.541478 8.68539 0.339368C8.43266 0.137181 8.06395 0.178196 7.86184 0.430853L3.35023 6.07031H1.28809C0.964492 6.07031 0.702148 6.33265 0.702148 6.65624V8.99999C0.702148 9.32359 0.964492 9.58593 1.28809 9.58593H2.01801L4.24035 17.3641C4.31219 17.6157 4.54211 17.7891 4.80371 17.7891H16.6006C16.8622 17.7891 17.0921 17.6157 17.164 17.3641L19.3863 9.58593H20.1162C20.4398 9.58593 20.7021 9.32359 20.7021 8.99999V6.65624C20.7021 6.33265 20.4398 6.07031 20.1162 6.07031ZM16.1586 16.6172H5.24566L3.23676 9.58593H18.1676L16.1586 16.6172ZM19.5303 8.41406C17.523 8.41406 3.77559 8.41406 1.87402 8.41406V7.24218H19.5303V8.41406Z" fill="white"/>
<path d="M10.7021 15.4453C11.0257 15.4453 11.2881 15.183 11.2881 14.8594V11.3438C11.2881 11.0202 11.0257 10.7578 10.7021 10.7578C10.3786 10.7578 10.1162 11.0202 10.1162 11.3438V14.8594C10.1162 15.183 10.3786 15.4453 10.7021 15.4453Z" fill="white"/>
</svg>
