<svg width="18" height="17" viewBox="0 0 18 17" fill="none" xmlns="http://www.w3.org/2000/svg">
<path d="M5.27753 1.51797C6.3482 1.54106 7.39109 2.05327 8.13864 3.41285C8.41642 3.91712 9.10975 3.91712 9.38864 3.41285C10.1364 2.0535 11.1793 1.5413 12.2498 1.51797C13.3204 1.49348 14.4164 2.02341 15.0924 2.87615C16.3969 4.52356 16.5635 7.4025 14.6538 9.41936L8.76353 14.7462L2.87242 9.41936C0.963754 7.40273 1.12931 4.52356 2.43487 2.87615C3.11087 2.02341 4.20687 1.49348 5.27753 1.51797ZM5.30864 0.000948089C3.77864 -0.0333389 2.29375 0.683655 1.32375 1.90679C-0.470246 4.17136 -0.578024 7.9371 1.85264 10.4967C1.86553 10.5105 1.87931 10.5235 1.89331 10.5368L8.29264 16.3215C8.56353 16.5657 8.96398 16.5657 9.23464 16.3215L15.6351 10.5368C15.6491 10.5235 15.6618 10.5105 15.6746 10.4967C18.1053 7.93686 17.9962 4.17136 16.2024 1.90679C15.2338 0.683422 13.7475 -0.0335721 12.2184 0.000948089C10.95 0.028471 9.72664 0.768323 8.76353 1.97956C7.80064 0.768323 6.57731 0.028471 5.30864 0.000948089Z" fill="white"/>
</svg>
