<svg width="24" height="24" viewBox="0 0 24 24" fill="none" xmlns="http://www.w3.org/2000/svg">
<path d="M21.0016 6.72998C20.9816 6.72998 20.9516 6.72998 20.9216 6.72998C15.6316 6.19998 10.3516 5.99998 5.12162 6.52998L3.08162 6.72998C2.66162 6.76998 2.29162 6.46998 2.25162 6.04998C2.21162 5.62998 2.51162 5.26998 2.92162 5.22998L4.96162 5.02998C10.2816 4.48998 15.6716 4.69998 21.0716 5.22998C21.4816 5.26998 21.7816 5.63998 21.7416 6.04998C21.7116 6.43998 21.3816 6.72998 21.0016 6.72998Z" fill="#F9311E"/>
<path d="M8.5027 5.72C8.4627 5.72 8.42269 5.72 8.37269 5.71C7.97269 5.64 7.6927 5.25 7.7627 4.85L7.9827 3.54C8.1427 2.58 8.36269 1.25 10.6927 1.25H13.3127C15.6527 1.25 15.8727 2.63 16.0227 3.55L16.2427 4.85C16.3127 5.26 16.0327 5.65 15.6327 5.71C15.2227 5.78 14.8327 5.5 14.7727 5.1L14.5527 3.8C14.4127 2.93 14.3827 2.76 13.3227 2.76H10.7027C9.64269 2.76 9.6227 2.9 9.4727 3.79L9.24269 5.09C9.18269 5.46 8.86269 5.72 8.5027 5.72Z" fill="#F9311E"/>
<path d="M15.2123 22.75H8.79234C5.30234 22.75 5.16234 20.82 5.05234 19.26L4.40234 9.18995C4.37234 8.77995 4.69234 8.41995 5.10234 8.38995C5.52234 8.36995 5.87234 8.67995 5.90234 9.08995L6.55234 19.16C6.66234 20.68 6.70234 21.25 8.79234 21.25H15.2123C17.3123 21.25 17.3523 20.68 17.4523 19.16L18.1023 9.08995C18.1323 8.67995 18.4923 8.36995 18.9023 8.38995C19.3123 8.41995 19.6323 8.76995 19.6023 9.18995L18.9523 19.26C18.8423 20.82 18.7023 22.75 15.2123 22.75Z" fill="#F9311E"/>
<path d="M13.662 17.25H10.332C9.92203 17.25 9.58203 16.91 9.58203 16.5C9.58203 16.09 9.92203 15.75 10.332 15.75H13.662C14.072 15.75 14.412 16.09 14.412 16.5C14.412 16.91 14.072 17.25 13.662 17.25Z" fill="#F9311E"/>
<path d="M14.502 13.25H9.50195C9.09195 13.25 8.75195 12.91 8.75195 12.5C8.75195 12.09 9.09195 11.75 9.50195 11.75H14.502C14.912 11.75 15.252 12.09 15.252 12.5C15.252 12.91 14.912 13.25 14.502 13.25Z" fill="#F9311E"/>
</svg>
